<svg id="Layer_1" data-name="Layer 1" xmlns="http://www.w3.org/2000/svg" viewBox="0 0 692.32 82.21"><defs><style>.cls-1,.cls-3{fill:#be1e2d;}.cls-2{fill:#f1f2f2;}.cls-3{font-size:68px;font-family:Norwester;}.cls-4{letter-spacing:-2px;}</style></defs><title>epicfitness-logo</title><polygon class="cls-1" points="14.06 0 67.37 0 82.36 51.15 40.8 82.21 0 50.84 14.06 0"/><polygon class="cls-2" points="40.68 54.28 49.43 57.73 48.35 61.07 40.68 64.42 33 61.07 31.92 57.73 40.68 54.28"/><polygon class="cls-2" points="64.47 38.75 58.5 14.96 45.1 14.96 45.1 14.93 36.14 14.93 36.14 14.96 22.86 14.96 16.88 38.75 27.7 43.59 23.47 44.73 27.8 56.37 39.03 51.94 39.03 45.94 34.7 43.9 31.71 33.91 23.78 30.61 33.16 30.61 36.14 40.2 40.68 40.2 45.21 40.2 48.2 30.61 57.57 30.61 49.64 33.91 46.65 43.9 42.34 45.89 42.33 51.94 53.55 56.37 57.88 44.73 53.66 43.59 64.47 38.75"/><polygon class="cls-1" points="14.06 0 67.37 0 82.36 51.15 40.8 82.21 0 50.84 14.06 0"/><polygon class="cls-2" points="40.68 54.28 49.43 57.73 48.35 61.07 40.68 64.42 33 61.07 31.92 57.73 40.68 54.28"/><polygon class="cls-2" points="64.47 38.75 58.5 14.96 45.1 14.96 45.1 14.93 36.14 14.93 36.14 14.96 22.86 14.96 16.88 38.75 27.7 43.59 23.47 44.73 27.8 56.37 39.03 51.94 39.03 45.94 34.7 43.9 31.71 33.91 23.78 30.61 33.16 30.61 36.14 40.2 40.68 40.2 45.21 40.2 48.2 30.61 57.57 30.61 49.64 33.91 46.65 43.9 42.34 45.89 42.33 51.94 53.55 56.37 57.88 44.73 53.66 43.59 64.47 38.75"/><text class="cls-3" transform="translate(93.53 66.36)">EPIC FITN<tspan class="cls-4" x="252.21" y="0">E</tspan><tspan x="284.1" y="0">SS 365</tspan></text></svg>